<svg xmlns="http://www.w3.org/2000/svg"  viewBox="0 0 24 24" width="48px" height="48px" baseProfile="basic"><linearGradient id="hswQ2z0_fUY3hR6_E_Pb_a" x1="4.58" x2="19.37" y1="6.521" y2="21.311" gradientUnits="userSpaceOnUse"><stop offset="0" stop-color="#fff" stop-opacity=".6"/><stop offset="1" stop-color="#fff" stop-opacity=".3"/></linearGradient><path fill="url(#hswQ2z0_fUY3hR6_E_Pb_a)" d="M21.55,16.4l-1.15-1.533c-0.909-1.212-1.4-2.685-1.4-4.2V9.294 c0-3.833-2.953-7.175-6.785-7.29C8.251,1.884,5,5.062,5,9v1.667c0,1.515-0.491,2.988-1.4,4.2L2.45,16.4 C2.158,16.789,2,17.263,2,17.75C2,18.993,3.007,20,4.25,20H9c0,1.657,1.343,3,3,3s3-1.343,3-3h4.75c1.243,0,2.25-1.007,2.25-2.25 C22,17.263,21.842,16.789,21.55,16.4z"/><linearGradient id="hswQ2z0_fUY3hR6_E_Pb_b" x1="4.58" x2="19.37" y1="6.521" y2="21.311" gradientUnits="userSpaceOnUse"><stop offset="0" stop-color="#fff" stop-opacity=".6"/><stop offset=".493" stop-color="#fff" stop-opacity="0"/><stop offset=".997" stop-color="#fff" stop-opacity=".3"/></linearGradient><path fill="url(#hswQ2z0_fUY3hR6_E_Pb_b)" d="M12,2.5c0.066,0,0.134,0.001,0.2,0.003 c3.474,0.104,6.3,3.15,6.3,6.79v1.373c0,1.612,0.533,3.21,1.5,4.5l1.15,1.533c0.226,0.301,0.35,0.674,0.35,1.05 c0,0.965-0.785,1.75-1.75,1.75H15h-0.5V20c0,1.379-1.122,2.5-2.5,2.5S9.5,21.379,9.5,20v-0.5H9H4.25c-0.965,0-1.75-0.785-1.75-1.75 c0-0.376,0.124-0.749,0.35-1.05L4,15.167c0.967-1.29,1.5-2.888,1.5-4.5V9C5.5,5.416,8.416,2.5,12,2.5 M12,2C8.134,2,5,5.134,5,9 v1.667c0,1.515-0.491,2.988-1.4,4.2L2.45,16.4C2.158,16.789,2,17.263,2,17.75C2,18.993,3.007,20,4.25,20H9c0,1.657,1.343,3,3,3 s3-1.343,3-3h4.75c1.243,0,2.25-1.007,2.25-2.25c0-0.487-0.158-0.961-0.45-1.35l-1.15-1.533c-0.909-1.212-1.4-2.685-1.4-4.2V9.294 c0-3.833-2.953-7.175-6.785-7.29C12.144,2.001,12.071,2,12,2L12,2z"/><linearGradient id="hswQ2z0_fUY3hR6_E_Pb_c" x1="10.189" x2="13.811" y1="18.811" y2="22.432" gradientUnits="userSpaceOnUse"><stop offset="0" stop-color="#fff" stop-opacity=".7"/><stop offset=".519" stop-color="#fff" stop-opacity=".45"/><stop offset="1" stop-color="#fff" stop-opacity=".55"/></linearGradient><path fill="url(#hswQ2z0_fUY3hR6_E_Pb_c)" d="M9,20c0,1.657,1.343,3,3,3s3-1.343,3-3H9z"/></svg>